<?xml version="1.0" standalone="no"?>
<!DOCTYPE svg PUBLIC "-//W3C//DTD SVG 20010904//EN"
 "http://www.w3.org/TR/2001/REC-SVG-20010904/DTD/svg10.dtd">
<svg version="1.0" xmlns="http://www.w3.org/2000/svg"
 width="917.000000pt" height="612.000000pt" viewBox="0 0 917.000000 612.000000"
 preserveAspectRatio="xMidYMid meet">
<metadata>
Created by potrace 1.16, written by Peter Selinger 2001-2019
</metadata>
<g transform="translate(0.000000,612.000000) scale(0.100000,-0.100000)"
fill="#000000" stroke="none">
<path d="M3493 5763 c-53 -10 -53 -11 -53 -505 0 -443 -1 -458 -19 -458 -11 0
-63 43 -118 98 -102 100 -187 205 -262 325 -49 77 -49 77 -138 20 l-53 -34 -1
-67 c-1 -37 -2 -87 -3 -112 -3 -105 16 -516 25 -525 5 -5 9 -27 9 -50 0 -38
18 -156 41 -272 6 -29 7 -58 3 -64 -4 -7 -3 -9 3 -6 7 4 13 -8 17 -31 11 -80
31 -171 39 -178 4 -4 7 -15 7 -25 0 -10 6 -38 14 -61 7 -24 21 -72 31 -108 9
-36 21 -74 25 -85 4 -11 18 -51 30 -90 11 -38 25 -79 30 -90 5 -11 14 -38 21
-60 6 -22 20 -62 30 -89 30 -77 29 -79 -73 -136 -102 -56 -113 -62 -175 -102
-23 -16 -44 -28 -47 -28 -3 0 -53 -29 -111 -65 -57 -36 -108 -65 -111 -65 -4
0 -52 -29 -108 -64 -55 -35 -124 -77 -153 -92 -107 -60 -162 -94 -168 -104
-10 -16 8 -28 207 -143 46 -27 106 -62 133 -78 28 -16 59 -34 70 -40 11 -5 45
-25 75 -43 30 -19 78 -46 105 -61 28 -15 52 -31 55 -34 3 -4 21 -15 40 -25 39
-20 63 -33 170 -94 41 -23 93 -53 115 -67 22 -14 51 -30 65 -37 14 -7 44 -25
67 -40 23 -15 44 -28 47 -28 4 0 86 -49 184 -108 198 -122 276 -167 407 -237
50 -27 106 -57 125 -68 19 -11 46 -27 60 -34 14 -8 39 -23 55 -33 17 -11 37
-23 45 -27 7 -4 43 -24 78 -45 35 -22 73 -43 85 -49 12 -5 36 -18 52 -28 54
-34 357 -211 361 -211 3 0 76 -43 265 -156 59 -35 109 -64 113 -64 4 0 32 -16
62 -35 30 -19 57 -35 59 -35 3 0 24 -12 47 -26 60 -38 106 -30 221 40 l92 56
5 -28 c3 -15 3 -56 -1 -92 -3 -36 -5 -105 -4 -155 1 -49 3 -140 4 -200 l1
-110 48 -29 c26 -16 61 -37 77 -46 42 -22 176 -98 200 -113 41 -25 92 -55 147
-85 56 -32 58 -32 198 -32 l140 0 -5 378 c-6 365 -7 378 -27 399 -12 13 -30
25 -40 29 -18 5 -19 14 -17 92 3 93 -8 210 -21 227 -14 17 -70 126 -70 136 0
5 42 36 93 69 125 81 126 81 109 106 -8 13 -111 76 -372 229 -102 59 -213 125
-247 146 -34 22 -65 39 -68 39 -4 0 -25 13 -48 28 -23 16 -76 47 -117 69 -41
22 -118 66 -170 98 -52 32 -110 66 -127 76 -18 11 -48 27 -65 38 -97 55 -219
128 -265 157 -28 19 -54 34 -56 34 -14 0 -269 155 -274 165 -3 10 70 138 98
169 8 9 110 -35 139 -60 8 -7 38 -25 66 -41 29 -15 105 -59 170 -97 66 -38
139 -80 164 -94 25 -14 78 -45 118 -69 41 -24 75 -43 77 -43 2 0 34 -19 71
-42 86 -51 241 -141 309 -178 28 -15 161 -92 295 -170 468 -273 642 -371 670
-376 17 -4 37 0 54 11 l26 17 0 1075 c0 947 -2 1076 -15 1097 -9 13 -17 37
-18 53 -1 22 -6 29 -16 25 -10 -4 -13 -1 -8 12 4 9 3 15 -2 11 -5 -3 -29 8
-53 23 -24 16 -71 44 -106 62 -41 22 -61 38 -58 47 4 10 -1 12 -18 7 -14 -3
-27 1 -35 10 -8 9 -20 16 -27 16 -8 0 -14 5 -14 10 0 6 -6 10 -13 10 -8 0 -22
9 -32 20 -10 11 -25 20 -32 20 -18 0 -123 69 -123 80 0 4 -9 6 -20 3 -11 -3
-20 -1 -20 5 0 6 -10 14 -22 18 -12 4 -48 24 -79 45 -31 22 -64 39 -72 39 -9
0 -20 6 -24 13 -4 7 -28 21 -53 32 -25 10 -66 34 -91 52 -26 18 -51 33 -56 33
-6 0 -29 14 -51 30 -23 17 -47 30 -53 30 -6 0 -34 16 -63 35 -29 19 -58 35
-65 35 -6 0 -11 3 -11 8 0 4 -15 13 -32 21 -18 8 -35 17 -38 21 -3 4 -34 21
-70 39 -77 39 -92 50 -84 63 4 6 -2 8 -15 3 -28 -9 -52 6 -25 16 16 7 15 8 -6
6 -21 -1 -105 43 -120 63 -3 3 -21 14 -40 23 -74 37 -210 113 -227 127 -10 8
-34 23 -53 32 -45 22 -113 61 -120 69 -6 7 -41 22 -55 23 -5 1 -10 4 -10 8 0
11 -49 45 -65 45 -9 0 -49 22 -90 50 -41 28 -86 54 -99 58 -14 4 -50 23 -80
43 -55 35 -110 66 -206 117 -27 15 -57 33 -66 41 -8 8 -21 14 -28 14 -6 0 -14
6 -17 14 -3 8 -13 12 -25 9 -12 -3 -19 0 -19 8 0 8 -19 23 -42 34 -23 11 -46
24 -52 30 -11 10 -56 35 -141 79 -85 44 -150 85 -148 94 1 4 -6 8 -16 9 -10 1
-33 11 -52 22 -19 11 -50 28 -69 37 -19 10 -46 26 -59 36 -13 10 -26 17 -30
17 -3 -1 -16 -4 -28 -6z m535 -927 c72 -42 182 -105 247 -141 28 -16 67 -39
87 -52 21 -12 40 -23 42 -23 2 0 39 -20 80 -45 42 -25 79 -45 82 -45 3 0 30
-16 60 -35 30 -19 57 -35 59 -35 3 0 38 -20 78 -44 96 -58 191 -111 252 -142
28 -13 57 -29 65 -34 8 -5 49 -29 90 -52 41 -24 89 -51 105 -61 17 -10 47 -25
68 -35 33 -15 37 -21 37 -54 0 -43 -2 -45 -38 -20 -15 10 -47 29 -72 41 -25
13 -47 26 -50 30 -3 3 -18 13 -35 22 -39 21 -158 92 -215 129 -25 15 -61 37
-80 48 -19 10 -57 31 -85 46 -27 15 -57 34 -66 42 -8 8 -19 14 -22 14 -7 0
-107 58 -280 161 -53 33 -100 59 -102 59 -3 0 -45 24 -93 53 -91 55 -103 62
-219 129 -48 28 -73 48 -73 60 0 25 14 23 78 -16z m437 -431 c143 -81 296
-168 340 -195 129 -76 236 -131 246 -125 5 4 9 -1 9 -9 0 -14 23 -27 44 -25 5
0 12 -3 15 -8 9 -14 162 -103 176 -103 7 0 23 -8 36 -19 13 -10 29 -19 34 -19
6 -1 12 -15 15 -32 6 -37 24 -40 28 -5 3 21 6 23 23 15 25 -14 24 -28 -3 -51
-23 -21 -48 -25 -48 -9 0 6 -8 5 -20 -2 -11 -7 -20 -18 -20 -25 0 -7 -8 -17
-19 -22 -14 -8 -30 -3 -72 24 -30 19 -59 35 -66 35 -6 0 -13 3 -15 8 -1 4 -20
15 -40 26 -20 10 -46 27 -58 38 -20 18 -20 18 -20 -2 0 -25 -8 -26 -27 -2 -8
11 -12 12 -11 3 2 -7 -3 -16 -10 -18 -7 -3 -14 7 -18 25 -5 24 -10 28 -30 24
-21 -4 -24 -1 -24 29 0 46 -11 59 -49 64 -56 7 -141 65 -141 97 0 26 19 23 73
-12 26 -16 52 -30 57 -30 6 0 19 -9 31 -21 16 -16 26 -19 42 -12 19 9 17 12
-28 38 -28 15 -113 65 -190 111 -77 45 -207 122 -290 170 -82 48 -192 112
-243 142 -83 49 -142 99 -142 122 0 10 34 -9 415 -225z m83 39 c301 -171 329
-191 303 -217 -7 -7 -30 2 -70 26 -32 21 -62 37 -65 37 -3 0 -29 15 -58 34
-29 18 -91 55 -138 81 -47 26 -88 53 -92 59 -9 13 -10 46 -2 46 3 0 58 -30
122 -66z m1185 -370 c51 -25 97 -49 102 -54 6 -4 46 -27 90 -50 44 -23 154
-83 245 -133 91 -50 194 -105 229 -123 35 -18 72 -41 82 -50 22 -20 38 -12 20
10 -9 11 -7 15 11 21 13 4 27 6 32 6 14 -3 26 22 20 41 -16 53 134 11 190 -53
63 -74 60 -35 64 -942 2 -555 -1 -841 -8 -867 -8 -31 -17 -41 -44 -50 -36 -11
-26 -16 -321 150 -60 34 -141 82 -185 110 -25 16 -63 39 -86 50 -38 20 -40 24
-30 46 6 13 17 24 24 24 23 0 2 20 -21 20 -22 1 -22 1 -2 17 20 15 20 15 -2
10 -13 -3 -26 -1 -29 4 -3 5 0 9 5 9 6 0 11 5 11 10 0 6 -18 10 -41 10 -23 0
-38 4 -34 10 3 5 19 7 35 3 19 -3 30 -1 30 6 0 7 -21 11 -54 11 -30 0 -58 5
-61 10 -5 9 21 15 51 11 6 -1 17 10 24 24 7 14 19 25 26 25 15 0 44 38 44 57
0 22 -15 14 -28 -14 -20 -43 -78 -76 -121 -68 -41 7 -102 40 -114 61 -5 9 -17
12 -32 8 -18 -4 -25 -1 -30 16 -5 15 -12 19 -26 15 -12 -4 -21 -1 -25 9 -3 8
-14 18 -25 21 -10 4 -19 13 -19 21 0 8 -4 14 -10 14 -15 0 -12 17 6 35 9 9 13
19 9 23 -3 4 -12 -1 -19 -10 -7 -10 -16 -15 -19 -11 -4 3 -1 13 5 21 7 8 13
39 13 68 1 35 7 59 18 72 12 13 16 29 11 53 l-5 34 15 -25 c8 -14 16 -34 16
-45 1 -20 1 -20 15 -1 15 19 15 19 15 -2 0 -12 5 -22 10 -22 6 0 10 -10 10
-22 0 -17 -3 -19 -12 -10 -8 8 -15 9 -25 1 -10 -9 -13 -7 -13 10 0 11 -5 21
-10 21 -6 0 -8 -11 -4 -27 9 -39 22 -51 35 -33 8 11 9 7 5 -16 -4 -26 -1 -33
14 -37 15 -4 20 0 20 14 0 10 4 19 9 19 13 0 22 -30 14 -43 -11 -17 -11 -60 0
-74 6 -9 5 -13 -4 -13 -9 -1 -8 -4 4 -11 14 -8 16 -14 6 -25 -9 -11 -8 -14 4
-14 8 0 17 5 19 12 5 13 28 2 28 -13 0 -6 -5 -7 -12 -3 -7 5 -8 3 -4 -5 5 -7
15 -10 23 -7 8 3 27 -1 43 -9 26 -14 28 -13 23 5 -4 16 0 20 20 20 24 0 59 32
70 63 2 7 8 9 12 5 12 -11 -35 -78 -55 -78 -22 0 -35 -16 -20 -25 10 -6 31 3
63 29 10 7 26 37 36 66 14 40 19 47 24 31 3 -12 1 -24 -4 -27 -5 -3 -9 -14 -9
-25 0 -10 -4 -19 -10 -19 -5 0 -10 -6 -10 -14 0 -37 -90 -81 -115 -57 -10 9
-84 27 -75 18 3 -3 22 -14 43 -26 48 -27 103 -28 112 -2 3 10 14 21 25 24 51
13 79 163 45 244 -19 46 -19 63 1 63 12 0 15 -6 10 -23 -3 -14 2 -36 15 -56
10 -17 17 -37 13 -43 -4 -6 -7 -49 -7 -97 0 -93 -16 -132 -61 -146 -18 -6 -18
-8 -4 -12 9 -2 30 8 47 23 28 25 31 33 31 86 0 32 4 58 10 58 5 0 9 -28 9 -62
-1 -54 -5 -67 -27 -90 -28 -31 -20 -37 16 -12 12 8 22 26 22 40 0 15 6 24 16
24 14 0 14 1 0 16 -25 25 -21 99 6 118 12 9 17 16 10 16 -20 0 -13 31 8 37 11
3 20 9 20 14 0 5 -8 5 -17 2 -15 -6 -16 -4 -6 8 6 8 11 42 12 77 0 61 -3 67
-38 62 -9 -1 -12 5 -9 18 3 11 2 26 -3 33 -7 11 -9 10 -9 -3 0 -10 -9 -22 -19
-28 -27 -14 -31 -13 -31 10 0 13 5 18 14 14 8 -3 20 3 27 15 15 23 39 11 39
-20 0 -11 5 -19 10 -19 6 0 10 9 10 20 0 11 -4 20 -10 20 -5 0 -10 6 -10 14 0
8 -9 18 -20 21 -11 3 -20 11 -20 16 0 5 9 9 20 9 12 0 20 7 21 18 1 9 2 35 3
57 2 22 1 34 -2 27 -6 -18 -32 4 -32 27 0 14 2 14 10 1 6 -9 10 -10 10 -3 0 6
-5 15 -11 19 -6 3 -8 15 -6 26 6 23 -10 79 -28 93 -6 6 -15 22 -19 38 -5 22
-12 27 -36 27 -32 0 -40 14 -14 24 15 6 14 9 -6 31 -13 14 -20 30 -16 40 4 11
-11 33 -45 67 -27 27 -48 53 -44 56 3 3 23 -12 45 -33 22 -22 40 -34 40 -28 0
9 -27 36 -120 117 -24 21 -54 39 -112 66 -21 10 -31 10 -41 1 -9 -7 -31 -9
-61 -5 -54 8 -72 24 -27 24 17 0 31 5 31 10 0 6 -14 10 -31 10 -17 0 -28 4
-24 10 10 16 53 12 97 -10 23 -11 48 -20 55 -20 8 0 34 -11 58 -25 24 -13 47
-20 50 -16 9 15 -101 63 -212 91 -90 23 -109 25 -116 14 -4 -8 -5 -18 -2 -24
3 -5 -4 -14 -15 -20 -11 -6 -20 -20 -20 -31 0 -12 -11 -30 -25 -41 -18 -14
-24 -26 -20 -39 4 -11 0 -26 -9 -35 -9 -8 -16 -26 -16 -38 0 -13 -5 -38 -12
-56 -7 -23 -8 -35 -1 -37 7 -3 4 -21 -6 -50 -11 -33 -13 -47 -5 -50 8 -3 6
-18 -6 -52 -16 -41 -17 -61 -10 -147 5 -54 11 -126 13 -159 3 -33 12 -77 21
-99 9 -21 16 -48 16 -60 0 -11 9 -40 19 -63 16 -35 17 -44 6 -53 -11 -9 -20
-7 -42 8 -40 29 -422 262 -429 262 -2 0 -29 18 -58 40 -29 22 -58 40 -64 40
-15 0 -27 21 -16 29 10 7 44 135 44 164 0 10 5 15 10 12 6 -3 10 -1 10 4 0 6
-4 11 -10 11 -15 0 -12 37 5 53 10 11 13 25 9 46 -8 41 18 53 44 21 17 -21 19
-21 25 -6 5 12 0 19 -17 26 -31 11 -44 35 -38 66 3 19 9 23 23 19 11 -4 19 -2
19 4 0 6 -4 11 -9 11 -14 0 -22 29 -15 56 7 28 17 30 38 9 8 -8 23 -15 34 -15
11 0 23 -7 26 -16 4 -10 14 -14 26 -11 11 3 20 1 20 -4 0 -5 12 -9 27 -9 28 0
26 10 -4 15 -10 1 -17 7 -16 12 1 6 -8 8 -21 6 -13 -3 -27 0 -30 6 -5 7 2 11
16 12 22 0 22 1 3 9 -29 12 -37 12 -29 -2 5 -9 3 -9 -9 1 -9 7 -14 17 -11 22
3 5 0 9 -5 9 -21 0 -61 44 -61 66 0 33 16 38 53 15 57 -36 129 -72 134 -68 2
3 -5 8 -16 12 -12 3 -21 10 -21 15 0 4 -8 10 -17 14 -34 11 -108 59 -118 75
-16 27 -15 49 2 56 10 3 22 0 28 -7 11 -14 96 -58 113 -58 6 0 12 -4 14 -8 2
-4 19 -17 40 -29 l36 -21 6 34 c4 19 16 38 27 44 11 6 17 16 13 22 -4 6 0 8
12 4 16 -5 19 0 21 26 2 18 -4 42 -12 55 -17 26 -19 37 -5 28 6 -3 7 1 4 9 -3
9 -1 16 5 16 6 0 11 -4 11 -9 0 -16 41 -20 47 -5 3 8 13 14 23 14 22 0 53 45
56 83 1 16 6 32 11 36 4 3 19 30 33 59 15 34 35 59 52 68 33 17 38 39 7 31
-13 -3 -19 -1 -16 6 2 7 14 11 25 9 16 -2 20 1 16 12 -9 23 -4 21 99 -30z
m-1522 -551 c11 -27 27 -61 35 -77 8 -16 14 -37 14 -46 0 -16 -454 -490 -470
-490 -5 0 -20 19 -33 43 -14 23 -66 113 -116 199 -50 86 -100 173 -111 193
l-20 36 42 39 c24 22 50 40 58 40 8 -1 35 -31 60 -67 85 -127 151 -213 163
-213 7 1 26 18 42 39 114 147 290 351 302 351 7 0 23 -21 34 -47z m1704 -20
c48 -25 77 -55 63 -64 -8 -5 5 -25 42 -61 41 -40 50 -54 37 -56 -20 -4 -22
-18 -4 -25 6 -2 9 -7 5 -11 -11 -13 -48 18 -43 36 3 9 1 19 -4 22 -6 4 -7 14
-4 24 6 15 5 15 -11 3 -9 -8 -15 -19 -13 -25 3 -7 -10 -11 -32 -11 -20 0 -39
-4 -42 -8 -3 -5 -13 -1 -23 8 -11 12 -13 21 -6 34 6 12 5 22 -2 29 -16 16 -98
14 -128 -3 -37 -21 -47 -18 -45 15 1 17 -3 30 -9 30 -6 0 -2 7 8 15 11 8 38
15 60 14 36 0 38 -1 18 -10 -32 -12 -20 -25 30 -32 24 -3 54 -9 68 -13 25 -6
25 -6 5 10 -19 17 -19 17 10 11 l30 -7 -24 21 c-13 12 -32 21 -42 21 -26 0
-50 11 -44 20 3 5 20 4 38 -1 44 -13 51 -11 37 6 -14 16 -60 20 -75 6 -14 -12
-115 -22 -115 -11 0 5 10 12 23 14 12 3 31 7 42 9 11 3 -5 5 -35 6 -45 1 -52
4 -36 12 11 7 38 9 66 5 29 -4 51 -2 55 4 6 10 26 2 100 -37z m225 -2403 c17
-34 43 -130 35 -130 -26 0 -175 86 -175 101 0 11 90 69 107 69 7 0 22 -18 33
-40z"/>
<path d="M2850 1691 c-32 -27 -34 -30 -21 -53 7 -14 29 -33 48 -42 19 -9 100
-55 181 -103 81 -48 192 -112 247 -143 55 -31 164 -93 241 -139 182 -105 192
-108 263 -75 l56 25 -30 22 c-16 12 -95 60 -175 106 -80 46 -172 99 -205 118
-33 19 -73 42 -90 52 -76 46 -279 161 -284 161 -2 0 -12 6 -20 14 -24 20 -149
86 -164 86 -7 0 -28 -13 -47 -29z"/>
</g>
</svg>
